<svg width="318" height="39" viewBox="0 0 318 39" fill="none" xmlns="http://www.w3.org/2000/svg">
<path d="M0.642046 38V3.09091H9.07955V17.1023H22.8352V3.09091H31.2557V38H22.8352V23.9716H9.07955V38H0.642046ZM43.929 38.4432C42.2585 38.4432 40.7756 38.1648 39.4801 37.608C38.196 37.0398 37.179 36.1875 36.429 35.0511C35.6903 33.9034 35.321 32.4659 35.321 30.7386C35.321 29.2841 35.5767 28.0568 36.0881 27.0568C36.5994 26.0568 37.304 25.2443 38.2017 24.6193C39.0994 23.9943 40.1335 23.5227 41.304 23.2045C42.4744 22.875 43.7244 22.6534 45.054 22.5398C46.5426 22.4034 47.7415 22.2614 48.6506 22.1136C49.5597 21.9545 50.2188 21.733 50.6278 21.4489C51.0483 21.1534 51.2585 20.7386 51.2585 20.2045V20.1193C51.2585 19.2443 50.9574 18.5682 50.3551 18.0909C49.7528 17.6136 48.9403 17.375 47.9176 17.375C46.8153 17.375 45.929 17.6136 45.2585 18.0909C44.5881 18.5682 44.1619 19.2273 43.9801 20.0682L36.2926 19.7955C36.5199 18.2045 37.1051 16.7841 38.0483 15.5341C39.0028 14.2727 40.3097 13.2841 41.9688 12.5682C43.6392 11.8409 45.6449 11.4773 47.9858 11.4773C49.6563 11.4773 51.196 11.6761 52.6051 12.0739C54.0142 12.4602 55.2415 13.0284 56.2869 13.7784C57.3324 14.517 58.1392 15.4261 58.7074 16.5057C59.2869 17.5852 59.5767 18.8182 59.5767 20.2045V38H51.7358V34.3523H51.5312C51.0653 35.2386 50.4688 35.9886 49.7415 36.6023C49.0256 37.2159 48.179 37.6761 47.2017 37.983C46.2358 38.2898 45.1449 38.4432 43.929 38.4432ZM46.5028 32.9886C47.4006 32.9886 48.2074 32.8068 48.9233 32.4432C49.6506 32.0795 50.2301 31.5795 50.6619 30.9432C51.0938 30.2955 51.3097 29.5455 51.3097 28.6932V26.2045C51.071 26.3295 50.7813 26.4432 50.4403 26.5455C50.1108 26.6477 49.7472 26.7443 49.3494 26.8352C48.9517 26.9261 48.5426 27.0057 48.1222 27.0739C47.7017 27.142 47.2983 27.2045 46.9119 27.2614C46.1278 27.3864 45.4574 27.5795 44.9006 27.8409C44.3551 28.1023 43.9347 28.4432 43.6392 28.8636C43.3551 29.2727 43.2131 29.7614 43.2131 30.3295C43.2131 31.1932 43.5199 31.8523 44.1335 32.3068C44.7585 32.7614 45.5483 32.9886 46.5028 32.9886ZM64.6733 38V3.09091H73.0085V16.3011H73.179C73.5199 15.5057 74.0028 14.7386 74.6278 14C75.2642 13.2614 76.071 12.6591 77.0483 12.1932C78.0369 11.7159 79.2188 11.4773 80.5938 11.4773C82.4119 11.4773 84.1108 11.9545 85.6903 12.9091C87.2812 13.8636 88.5653 15.3352 89.5426 17.3239C90.5199 19.3125 91.0085 21.8466 91.0085 24.9261C91.0085 27.892 90.5369 30.375 89.5938 32.375C88.6619 34.375 87.4006 35.875 85.8097 36.875C84.2301 37.875 82.4744 38.375 80.5426 38.375C79.2244 38.375 78.0824 38.1591 77.1165 37.7273C76.1506 37.2955 75.3381 36.7273 74.679 36.0227C74.0312 35.3182 73.5313 34.5625 73.179 33.7557H72.9233V38H64.6733ZM72.8381 24.9091C72.8381 26.3182 73.0256 27.5455 73.4006 28.5909C73.7869 29.6364 74.3381 30.4489 75.054 31.0284C75.7812 31.5966 76.6506 31.8807 77.6619 31.8807C78.6847 31.8807 79.554 31.5966 80.2699 31.0284C80.9858 30.4489 81.5256 29.6364 81.8892 28.5909C82.2642 27.5455 82.4517 26.3182 82.4517 24.9091C82.4517 23.5 82.2642 22.2784 81.8892 21.2443C81.5256 20.2102 80.9858 19.4091 80.2699 18.8409C79.5653 18.2727 78.696 17.9886 77.6619 17.9886C76.6392 17.9886 75.7699 18.267 75.054 18.8239C74.3381 19.3807 73.7869 20.1761 73.4006 21.2102C73.0256 22.2443 72.8381 23.4773 72.8381 24.9091ZM95.3764 38V11.8182H103.712V38H95.3764ZM99.5526 8.76705C98.3821 8.76705 97.3764 8.38068 96.5355 7.60795C95.6946 6.82386 95.2741 5.88068 95.2741 4.77841C95.2741 3.6875 95.6946 2.75568 96.5355 1.98295C97.3764 1.19886 98.3821 0.806816 99.5526 0.806816C100.734 0.806816 101.74 1.19886 102.57 1.98295C103.411 2.75568 103.831 3.6875 103.831 4.77841C103.831 5.88068 103.411 6.82386 102.57 7.60795C101.74 8.38068 100.734 8.76705 99.5526 8.76705ZM123.795 11.8182V17.9545H107.278V11.8182H123.795ZM110.739 5.54545H119.074V29.767C119.074 30.2784 119.153 30.6932 119.312 31.0114C119.483 31.3182 119.727 31.5398 120.045 31.6761C120.364 31.8011 120.744 31.8636 121.188 31.8636C121.506 31.8636 121.841 31.8352 122.193 31.7784C122.557 31.7102 122.83 31.6534 123.011 31.608L124.273 37.625C123.875 37.7386 123.313 37.8807 122.585 38.0511C121.869 38.2216 121.011 38.3295 120.011 38.375C118.057 38.4659 116.381 38.2386 114.983 37.6932C113.597 37.1364 112.534 36.2727 111.795 35.1023C111.068 33.9318 110.716 32.4602 110.739 30.6875V5.54545ZM137.219 9.94318V3.09091H166.724V9.94318H156.139V38H147.821V9.94318H137.219ZM168.126 38V11.8182H176.223V16.5909H176.496C176.973 14.8636 177.751 13.5795 178.831 12.7386C179.911 11.8864 181.166 11.4602 182.598 11.4602C182.984 11.4602 183.382 11.4886 183.791 11.5455C184.2 11.5909 184.581 11.6648 184.933 11.767V19.0114C184.536 18.875 184.013 18.767 183.365 18.6875C182.729 18.608 182.161 18.5682 181.661 18.5682C180.672 18.5682 179.78 18.7898 178.984 19.233C178.2 19.6648 177.581 20.2727 177.126 21.0568C176.683 21.8295 176.462 22.7386 176.462 23.7841V38H168.126ZM194.726 38.4432C193.055 38.4432 191.572 38.1648 190.277 37.608C188.993 37.0398 187.976 36.1875 187.226 35.0511C186.487 33.9034 186.118 32.4659 186.118 30.7386C186.118 29.2841 186.374 28.0568 186.885 27.0568C187.396 26.0568 188.101 25.2443 188.999 24.6193C189.896 23.9943 190.93 23.5227 192.101 23.2045C193.271 22.875 194.521 22.6534 195.851 22.5398C197.339 22.4034 198.538 22.2614 199.447 22.1136C200.357 21.9545 201.016 21.733 201.425 21.4489C201.845 21.1534 202.055 20.7386 202.055 20.2045V20.1193C202.055 19.2443 201.754 18.5682 201.152 18.0909C200.55 17.6136 199.737 17.375 198.714 17.375C197.612 17.375 196.726 17.6136 196.055 18.0909C195.385 18.5682 194.959 19.2273 194.777 20.0682L187.089 19.7955C187.317 18.2045 187.902 16.7841 188.845 15.5341C189.8 14.2727 191.107 13.2841 192.766 12.5682C194.436 11.8409 196.442 11.4773 198.783 11.4773C200.453 11.4773 201.993 11.6761 203.402 12.0739C204.811 12.4602 206.038 13.0284 207.084 13.7784C208.129 14.517 208.936 15.4261 209.504 16.5057C210.084 17.5852 210.374 18.8182 210.374 20.2045V38H202.533V34.3523H202.328C201.862 35.2386 201.266 35.9886 200.538 36.6023C199.822 37.2159 198.976 37.6761 197.999 37.983C197.033 38.2898 195.942 38.4432 194.726 38.4432ZM197.3 32.9886C198.197 32.9886 199.004 32.8068 199.72 32.4432C200.447 32.0795 201.027 31.5795 201.459 30.9432C201.891 30.2955 202.107 29.5455 202.107 28.6932V26.2045C201.868 26.3295 201.578 26.4432 201.237 26.5455C200.908 26.6477 200.544 26.7443 200.146 26.8352C199.749 26.9261 199.339 27.0057 198.919 27.0739C198.499 27.142 198.095 27.2045 197.709 27.2614C196.925 27.3864 196.254 27.5795 195.697 27.8409C195.152 28.1023 194.732 28.4432 194.436 28.8636C194.152 29.2727 194.01 29.7614 194.01 30.3295C194.01 31.1932 194.317 31.8523 194.93 32.3068C195.555 32.7614 196.345 32.9886 197.3 32.9886ZM227.692 38.4943C224.93 38.4943 222.561 37.9261 220.584 36.7898C218.618 35.6534 217.107 34.0739 216.05 32.0511C214.993 30.017 214.464 27.6648 214.464 24.9943C214.464 22.3125 214.993 19.9602 216.05 17.9375C217.118 15.9034 218.635 14.3182 220.601 13.1818C222.578 12.0455 224.936 11.4773 227.675 11.4773C230.095 11.4773 232.203 11.9148 233.999 12.7898C235.805 13.6648 237.214 14.9034 238.226 16.5057C239.249 18.0966 239.788 19.9659 239.845 22.1136H232.055C231.896 20.7727 231.442 19.7216 230.692 18.9602C229.953 18.1989 228.987 17.8182 227.794 17.8182C226.828 17.8182 225.982 18.0909 225.254 18.6364C224.527 19.1705 223.959 19.9659 223.55 21.0227C223.152 22.0682 222.953 23.3636 222.953 24.9091C222.953 26.4545 223.152 27.7614 223.55 28.8295C223.959 29.8864 224.527 30.6875 225.254 31.233C225.982 31.767 226.828 32.0341 227.794 32.0341C228.567 32.0341 229.249 31.8693 229.839 31.5398C230.442 31.2102 230.936 30.7273 231.322 30.0909C231.709 29.4432 231.953 28.6591 232.055 27.7386H239.845C239.766 29.8977 239.226 31.7841 238.226 33.3977C237.237 35.0114 235.845 36.267 234.05 37.1648C232.266 38.0511 230.146 38.4943 227.692 38.4943ZM251.628 31.1307L251.662 21.1932H252.821L260.185 11.8182H269.628L258.685 25.25H256.486L251.628 31.1307ZM244.111 38V3.09091H252.446V38H244.111ZM260.372 38L253.52 27.125L259.009 21.2102L270.003 38H260.372ZM283.771 38.4943C281.033 38.4943 278.669 37.9545 276.68 36.875C274.703 35.7841 273.18 34.233 272.112 32.2216C271.055 30.1989 270.527 27.7955 270.527 25.0114C270.527 22.3068 271.061 19.9432 272.129 17.9205C273.197 15.8864 274.703 14.3068 276.646 13.1818C278.589 12.0455 280.879 11.4773 283.516 11.4773C285.379 11.4773 287.084 11.767 288.629 12.3466C290.175 12.9261 291.51 13.7841 292.635 14.9205C293.76 16.0568 294.635 17.4602 295.26 19.1307C295.885 20.7898 296.197 22.6932 296.197 24.8409V26.9205H273.442V22.0795H288.442C288.43 21.1932 288.22 20.4034 287.811 19.7102C287.402 19.017 286.839 18.4773 286.124 18.0909C285.419 17.6932 284.607 17.4943 283.686 17.4943C282.754 17.4943 281.919 17.7045 281.18 18.125C280.442 18.5341 279.857 19.0966 279.425 19.8125C278.993 20.517 278.766 21.3182 278.743 22.2159V27.142C278.743 28.2102 278.953 29.1477 279.374 29.9545C279.794 30.75 280.391 31.3693 281.163 31.8125C281.936 32.2557 282.857 32.4773 283.925 32.4773C284.663 32.4773 285.334 32.375 285.936 32.1705C286.538 31.9659 287.055 31.6648 287.487 31.267C287.919 30.8693 288.243 30.3807 288.459 29.8011L296.112 30.0227C295.794 31.7386 295.095 33.233 294.016 34.5057C292.947 35.767 291.544 36.75 289.805 37.4545C288.067 38.1477 286.055 38.4943 283.771 38.4943ZM300.455 38V11.8182H308.551V16.5909H308.824C309.301 14.8636 310.08 13.5795 311.159 12.7386C312.239 11.8864 313.494 11.4602 314.926 11.4602C315.313 11.4602 315.71 11.4886 316.119 11.5455C316.528 11.5909 316.909 11.6648 317.261 11.767V19.0114C316.864 18.875 316.341 18.767 315.693 18.6875C315.057 18.608 314.489 18.5682 313.989 18.5682C313 18.5682 312.108 18.7898 311.312 19.233C310.528 19.6648 309.909 20.2727 309.455 21.0568C309.011 21.8295 308.79 22.7386 308.79 23.7841V38H300.455Z" fill="white"/>
</svg>
