<svg width="379" height="60" viewBox="0 0 379 60" fill="none" xmlns="http://www.w3.org/2000/svg">
<path d="M1.5 18.9432V12.0909H31.0057V18.9432H20.4205V47H12.1023V18.9432H1.5ZM32.4077 47V20.8182H40.5043V25.5909H40.777C41.2543 23.8636 42.0327 22.5795 43.1122 21.7386C44.1918 20.8864 45.4474 20.4602 46.8793 20.4602C47.2656 20.4602 47.6634 20.4886 48.0724 20.5455C48.4815 20.5909 48.8622 20.6648 49.2145 20.767V28.0114C48.8168 27.875 48.294 27.767 47.6463 27.6875C47.0099 27.608 46.4418 27.5682 45.9418 27.5682C44.9531 27.5682 44.0611 27.7898 43.2656 28.233C42.4815 28.6648 41.8622 29.2727 41.4077 30.0568C40.9645 30.8295 40.7429 31.7386 40.7429 32.7841V47H32.4077ZM59.0071 47.4432C57.3366 47.4432 55.8537 47.1648 54.5582 46.608C53.2741 46.0398 52.2571 45.1875 51.5071 44.0511C50.7685 42.9034 50.3991 41.4659 50.3991 39.7386C50.3991 38.2841 50.6548 37.0568 51.1662 36.0568C51.6776 35.0568 52.3821 34.2443 53.2798 33.6193C54.1776 32.9943 55.2116 32.5227 56.3821 32.2045C57.5526 31.875 58.8026 31.6534 60.1321 31.5398C61.6207 31.4034 62.8196 31.2614 63.7287 31.1136C64.6378 30.9545 65.2969 30.733 65.706 30.4489C66.1264 30.1534 66.3366 29.7386 66.3366 29.2045V29.1193C66.3366 28.2443 66.0355 27.5682 65.4332 27.0909C64.831 26.6136 64.0185 26.375 62.9957 26.375C61.8935 26.375 61.0071 26.6136 60.3366 27.0909C59.6662 27.5682 59.2401 28.2273 59.0582 29.0682L51.3707 28.7955C51.598 27.2045 52.1832 25.7841 53.1264 24.5341C54.081 23.2727 55.3878 22.2841 57.0469 21.5682C58.7173 20.8409 60.723 20.4773 63.0639 20.4773C64.7344 20.4773 66.2741 20.6761 67.6832 21.0739C69.0923 21.4602 70.3196 22.0284 71.3651 22.7784C72.4105 23.517 73.2173 24.4261 73.7855 25.5057C74.3651 26.5852 74.6548 27.8182 74.6548 29.2045V47H66.8139V43.3523H66.6094C66.1435 44.2386 65.5469 44.9886 64.8196 45.6023C64.1037 46.2159 63.2571 46.6761 62.2798 46.983C61.3139 47.2898 60.223 47.4432 59.0071 47.4432ZM61.581 41.9886C62.4787 41.9886 63.2855 41.8068 64.0014 41.4432C64.7287 41.0795 65.3082 40.5795 65.7401 39.9432C66.1719 39.2955 66.3878 38.5455 66.3878 37.6932V35.2045C66.1491 35.3295 65.8594 35.4432 65.5185 35.5455C65.1889 35.6477 64.8253 35.7443 64.4276 35.8352C64.0298 35.9261 63.6207 36.0057 63.2003 36.0739C62.7798 36.142 62.3764 36.2045 61.9901 36.2614C61.206 36.3864 60.5355 36.5795 59.9787 36.8409C59.4332 37.1023 59.0128 37.4432 58.7173 37.8636C58.4332 38.2727 58.2912 38.7614 58.2912 39.3295C58.2912 40.1932 58.598 40.8523 59.2116 41.3068C59.8366 41.7614 60.6264 41.9886 61.581 41.9886ZM91.973 47.4943C89.2116 47.4943 86.8423 46.9261 84.8651 45.7898C82.8991 44.6534 81.3878 43.0739 80.331 41.0511C79.2741 39.017 78.7457 36.6648 78.7457 33.9943C78.7457 31.3125 79.2741 28.9602 80.331 26.9375C81.3991 24.9034 82.9162 23.3182 84.8821 22.1818C86.8594 21.0455 89.2173 20.4773 91.956 20.4773C94.3764 20.4773 96.4844 20.9148 98.2798 21.7898C100.087 22.6648 101.496 23.9034 102.507 25.5057C103.53 27.0966 104.07 28.9659 104.126 31.1136H96.3366C96.1776 29.7727 95.723 28.7216 94.973 27.9602C94.2344 27.1989 93.2685 26.8182 92.0753 26.8182C91.1094 26.8182 90.2628 27.0909 89.5355 27.6364C88.8082 28.1705 88.2401 28.9659 87.831 30.0227C87.4332 31.0682 87.2344 32.3636 87.2344 33.9091C87.2344 35.4545 87.4332 36.7614 87.831 37.8295C88.2401 38.8864 88.8082 39.6875 89.5355 40.233C90.2628 40.767 91.1094 41.0341 92.0753 41.0341C92.848 41.0341 93.5298 40.8693 94.1207 40.5398C94.723 40.2102 95.2173 39.7273 95.6037 39.0909C95.9901 38.4432 96.2344 37.6591 96.3366 36.7386H104.126C104.047 38.8977 103.507 40.7841 102.507 42.3977C101.518 44.0114 100.126 45.267 98.331 46.1648C96.5469 47.0511 94.4276 47.4943 91.973 47.4943ZM115.909 40.1307L115.943 30.1932H117.102L124.466 20.8182H133.909L122.966 34.25H120.767L115.909 40.1307ZM108.392 47V12.0909H116.727V47H108.392ZM124.653 47L117.801 36.125L123.29 30.2102L134.284 47H124.653ZM136.892 47V20.8182H145.227V47H136.892ZM141.068 17.767C139.898 17.767 138.892 17.3807 138.051 16.608C137.21 15.8239 136.79 14.8807 136.79 13.7784C136.79 12.6875 137.21 11.7557 138.051 10.983C138.892 10.1989 139.898 9.80682 141.068 9.80682C142.25 9.80682 143.256 10.1989 144.085 10.983C144.926 11.7557 145.347 12.6875 145.347 13.7784C145.347 14.8807 144.926 15.8239 144.085 16.608C143.256 17.3807 142.25 17.767 141.068 17.767ZM158.868 32.0682V47H150.533V20.8182H158.459V25.625H158.749C159.328 24.0227 160.317 22.767 161.714 21.858C163.112 20.9375 164.777 20.4773 166.709 20.4773C168.55 20.4773 170.146 20.892 171.499 21.7216C172.862 22.5398 173.919 23.6875 174.669 25.1648C175.43 26.6307 175.805 28.3466 175.794 30.3125V47H167.459V31.9489C167.47 30.4943 167.101 29.358 166.351 28.5398C165.612 27.7216 164.584 27.3125 163.266 27.3125C162.391 27.3125 161.618 27.5057 160.947 27.892C160.288 28.267 159.777 28.8068 159.413 29.5114C159.061 30.2159 158.879 31.0682 158.868 32.0682ZM193.159 57.3636C190.67 57.3636 188.54 57.017 186.767 56.3239C184.994 55.6307 183.602 54.6818 182.591 53.4773C181.58 52.2727 180.972 50.9091 180.767 49.3864L188.659 48.9432C188.807 49.4773 189.08 49.9432 189.477 50.3409C189.886 50.7386 190.415 51.0455 191.062 51.2614C191.722 51.4773 192.494 51.5852 193.381 51.5852C194.778 51.5852 195.932 51.2443 196.841 50.5625C197.761 49.892 198.222 48.7159 198.222 47.0341V42.4318H197.932C197.602 43.2386 197.102 43.9602 196.432 44.5966C195.761 45.233 194.926 45.733 193.926 46.0966C192.938 46.4602 191.801 46.642 190.517 46.642C188.608 46.642 186.858 46.1989 185.267 45.3125C183.688 44.4148 182.42 43.0284 181.466 41.1534C180.523 39.267 180.051 36.8409 180.051 33.875C180.051 30.8182 180.54 28.3011 181.517 26.3239C182.494 24.3352 183.773 22.8636 185.352 21.9091C186.943 20.9545 188.653 20.4773 190.483 20.4773C191.858 20.4773 193.034 20.7159 194.011 21.1932C195 21.6591 195.813 22.2614 196.449 23C197.085 23.7386 197.568 24.5057 197.898 25.3011H198.136V20.8182H206.438V47.1023C206.438 49.3182 205.881 51.1875 204.767 52.7102C203.653 54.233 202.097 55.3864 200.097 56.1705C198.097 56.9659 195.784 57.3636 193.159 57.3636ZM193.415 40.5739C194.426 40.5739 195.29 40.3068 196.006 39.7727C196.722 39.2386 197.273 38.4716 197.659 37.4716C198.045 36.4716 198.239 35.2727 198.239 33.875C198.239 32.4545 198.045 31.233 197.659 30.2102C197.284 29.1761 196.733 28.3807 196.006 27.8239C195.29 27.267 194.426 26.9886 193.415 26.9886C192.381 26.9886 191.506 27.2727 190.79 27.8409C190.074 28.4091 189.528 29.2102 189.153 30.2443C188.79 31.267 188.608 32.4773 188.608 33.875C188.608 35.2727 188.795 36.4716 189.17 37.4716C189.545 38.4716 190.085 39.2386 190.79 39.7727C191.506 40.3068 192.381 40.5739 193.415 40.5739ZM222.064 47V12.0909H230.501V26.1023H244.257V12.0909H252.678V47H244.257V32.9716H230.501V47H222.064ZM265.351 47.4432C263.68 47.4432 262.197 47.1648 260.902 46.608C259.618 46.0398 258.601 45.1875 257.851 44.0511C257.112 42.9034 256.743 41.4659 256.743 39.7386C256.743 38.2841 256.999 37.0568 257.51 36.0568C258.021 35.0568 258.726 34.2443 259.624 33.6193C260.521 32.9943 261.555 32.5227 262.726 32.2045C263.896 31.875 265.146 31.6534 266.476 31.5398C267.964 31.4034 269.163 31.2614 270.072 31.1136C270.982 30.9545 271.641 30.733 272.05 30.4489C272.47 30.1534 272.68 29.7386 272.68 29.2045V29.1193C272.68 28.2443 272.379 27.5682 271.777 27.0909C271.175 26.6136 270.362 26.375 269.339 26.375C268.237 26.375 267.351 26.6136 266.68 27.0909C266.01 27.5682 265.584 28.2273 265.402 29.0682L257.714 28.7955C257.942 27.2045 258.527 25.7841 259.47 24.5341C260.425 23.2727 261.732 22.2841 263.391 21.5682C265.061 20.8409 267.067 20.4773 269.408 20.4773C271.078 20.4773 272.618 20.6761 274.027 21.0739C275.436 21.4602 276.663 22.0284 277.709 22.7784C278.754 23.517 279.561 24.4261 280.129 25.5057C280.709 26.5852 280.999 27.8182 280.999 29.2045V47H273.158V43.3523H272.953C272.487 44.2386 271.891 44.9886 271.163 45.6023C270.447 46.2159 269.601 46.6761 268.624 46.983C267.658 47.2898 266.567 47.4432 265.351 47.4432ZM267.925 41.9886C268.822 41.9886 269.629 41.8068 270.345 41.4432C271.072 41.0795 271.652 40.5795 272.084 39.9432C272.516 39.2955 272.732 38.5455 272.732 37.6932V35.2045C272.493 35.3295 272.203 35.4432 271.862 35.5455C271.533 35.6477 271.169 35.7443 270.771 35.8352C270.374 35.9261 269.964 36.0057 269.544 36.0739C269.124 36.142 268.72 36.2045 268.334 36.2614C267.55 36.3864 266.879 36.5795 266.322 36.8409C265.777 37.1023 265.357 37.4432 265.061 37.8636C264.777 38.2727 264.635 38.7614 264.635 39.3295C264.635 40.1932 264.942 40.8523 265.555 41.3068C266.18 41.7614 266.97 41.9886 267.925 41.9886ZM286.095 47V12.0909H294.43V25.3011H294.601C294.942 24.5057 295.425 23.7386 296.05 23C296.686 22.2614 297.493 21.6591 298.47 21.1932C299.459 20.7159 300.641 20.4773 302.016 20.4773C303.834 20.4773 305.533 20.9545 307.112 21.9091C308.703 22.8636 309.987 24.3352 310.964 26.3239C311.942 28.3125 312.43 30.8466 312.43 33.9261C312.43 36.892 311.959 39.375 311.016 41.375C310.084 43.375 308.822 44.875 307.232 45.875C305.652 46.875 303.896 47.375 301.964 47.375C300.646 47.375 299.504 47.1591 298.538 46.7273C297.572 46.2955 296.76 45.7273 296.101 45.0227C295.453 44.3182 294.953 43.5625 294.601 42.7557H294.345V47H286.095ZM294.26 33.9091C294.26 35.3182 294.447 36.5455 294.822 37.5909C295.209 38.6364 295.76 39.4489 296.476 40.0284C297.203 40.5966 298.072 40.8807 299.084 40.8807C300.107 40.8807 300.976 40.5966 301.692 40.0284C302.408 39.4489 302.947 38.6364 303.311 37.5909C303.686 36.5455 303.874 35.3182 303.874 33.9091C303.874 32.5 303.686 31.2784 303.311 30.2443C302.947 29.2102 302.408 28.4091 301.692 27.8409C300.987 27.2727 300.118 26.9886 299.084 26.9886C298.061 26.9886 297.192 27.267 296.476 27.8239C295.76 28.3807 295.209 29.1761 294.822 30.2102C294.447 31.2443 294.26 32.4773 294.26 33.9091ZM316.798 47V20.8182H325.134V47H316.798ZM320.974 17.767C319.804 17.767 318.798 17.3807 317.957 16.608C317.116 15.8239 316.696 14.8807 316.696 13.7784C316.696 12.6875 317.116 11.7557 317.957 10.983C318.798 10.1989 319.804 9.80682 320.974 9.80682C322.156 9.80682 323.162 10.1989 323.991 10.983C324.832 11.7557 325.253 12.6875 325.253 13.7784C325.253 14.8807 324.832 15.8239 323.991 16.608C323.162 17.3807 322.156 17.767 320.974 17.767ZM345.217 20.8182V26.9545H328.7V20.8182H345.217ZM332.161 14.5455H340.496V38.767C340.496 39.2784 340.575 39.6932 340.734 40.0114C340.905 40.3182 341.149 40.5398 341.467 40.6761C341.786 40.8011 342.166 40.8636 342.609 40.8636C342.928 40.8636 343.263 40.8352 343.615 40.7784C343.979 40.7102 344.251 40.6534 344.433 40.608L345.695 46.625C345.297 46.7386 344.734 46.8807 344.007 47.0511C343.291 47.2216 342.433 47.3295 341.433 47.375C339.479 47.4659 337.803 47.2386 336.405 46.6932C335.018 46.1364 333.956 45.2727 333.217 44.1023C332.49 42.9318 332.138 41.4602 332.161 39.6875V14.5455ZM372 28.8125L364.347 29.017C364.267 28.4716 364.051 27.9886 363.699 27.5682C363.347 27.1364 362.886 26.8011 362.318 26.5625C361.761 26.3125 361.114 26.1875 360.375 26.1875C359.409 26.1875 358.585 26.3807 357.903 26.767C357.233 27.1534 356.903 27.6761 356.915 28.3352C356.903 28.8466 357.108 29.2898 357.528 29.6648C357.96 30.0398 358.727 30.3409 359.83 30.5682L364.875 31.5227C367.489 32.0227 369.432 32.8523 370.705 34.0114C371.989 35.1705 372.636 36.7045 372.648 38.6136C372.636 40.4091 372.102 41.9716 371.045 43.3011C370 44.6307 368.568 45.6648 366.75 46.4034C364.932 47.1307 362.852 47.4943 360.511 47.4943C356.773 47.4943 353.824 46.7273 351.665 45.1932C349.517 43.6477 348.29 41.5795 347.983 38.9886L356.216 38.7841C356.398 39.7386 356.869 40.4659 357.631 40.9659C358.392 41.4659 359.364 41.7159 360.545 41.7159C361.614 41.7159 362.483 41.517 363.153 41.1193C363.824 40.7216 364.165 40.1932 364.176 39.5341C364.165 38.9432 363.903 38.4716 363.392 38.1193C362.881 37.7557 362.08 37.4716 360.989 37.267L356.42 36.3977C353.795 35.9205 351.841 35.0398 350.557 33.7557C349.273 32.4602 348.636 30.8125 348.648 28.8125C348.636 27.0625 349.102 25.5682 350.045 24.3295C350.989 23.0795 352.33 22.125 354.068 21.4659C355.807 20.8068 357.858 20.4773 360.222 20.4773C363.767 20.4773 366.563 21.2216 368.608 22.7102C370.653 24.1875 371.784 26.2216 372 28.8125Z" fill="white"/>
</svg>
